<svg xmlns="http://www.w3.org/2000/svg" xmlns:svg="http://www.w3.org/2000/svg" id="svg2" width="407.116" height="407.12" version="1.1" viewBox="0 0 407.116 407.12" xml:space="preserve"><metadata id="metadata8"/><defs id="defs6"><clipPath id="clipPath18" clipPathUnits="userSpaceOnUse"><path id="path16" d="M 0,551.584 H 595.28 V 0 H 0 Z"/></clipPath><mask id="mask1483" maskUnits="userSpaceOnUse"><g id="g1535" mask="none"><rect style="opacity:1;fill:#fff;fill-opacity:1;stroke:#000;stroke-width:15;stroke-linecap:round;stroke-linejoin:round;stroke-miterlimit:10;stroke-dasharray:none;stroke-dashoffset:1.21186769;stroke-opacity:1" id="rect1485" width="350.365" height="335.491" x="56.995" y="-397.425" transform="scale(1,-1)"/><g id="g1489" transform="translate(278.165,328.8574)" style="fill:#000"><path style="fill:#000;fill-opacity:1;fill-rule:nonzero;stroke:none" id="path1487" d="m 0,0 -80.594,-11.706 1.281,-7.756 74.821,-7.722 z"/></g><g id="g1493" transform="translate(270.1367,280.2754)" style="fill:#000"><path style="fill:#000;fill-opacity:1;fill-rule:nonzero;stroke:none" id="path1491" d="m 0,0 -65.53,-5.702 1.667,-10.09 61.018,-1.426 z"/></g><g id="g1497" transform="translate(261.4678,227.8125)" style="fill:#000"><path style="fill:#000;fill-opacity:1;fill-rule:nonzero;stroke:none" id="path1495" d="m 0,0 1.05,6.352 -52.871,9.908 3.852,-23.313 z"/></g><g id="g1501" transform="translate(260.4409,221.5967)" style="fill:#000"><path style="fill:#000;fill-opacity:1;fill-rule:nonzero;stroke:none" id="path1499" d="m 0,0 -45.964,-6.758 2.801,-16.954 41.79,15.402 z"/></g><g id="g1505" transform="translate(257.9424,206.4775)" style="fill:#000"><path style="fill:#000;fill-opacity:1;fill-rule:nonzero;stroke:none" id="path1503" d="m 0,0 -39.668,-14.621 1.223,-7.402 34.263,-3.287 z"/></g><g id="g1509" transform="translate(252.7793,175.2344)" style="fill:#000"><path style="fill:#000;fill-opacity:1;fill-rule:nonzero;stroke:none" id="path1507" d="m 0,0 -32.27,3.095 2.502,-15.142 28.607,5.02 z"/></g><g id="g1513" transform="translate(250.5811,161.9331)" style="fill:#000"><path style="fill:#000;fill-opacity:1;fill-rule:nonzero;stroke:none" id="path1511" d="m 0,0 -26.591,-4.667 3.427,-20.74 20.812,11.173 z"/></g><g id="g1517" transform="translate(233.9785,96.8223)" style="fill:#000"><path style="fill:#000;fill-opacity:1;fill-rule:nonzero;stroke:none" id="path1515" d="M 0,0 C 0.516,-2.663 5.329,-2.663 5.844,0 L 8.81,17.952 -3.29,19.911 Z"/></g><g id="g1521" transform="translate(246.9941,140.2266)" style="fill:#000"><path style="fill:#000;fill-opacity:1;fill-rule:nonzero;stroke:none" id="path1519" d="m 0,0 -18.543,-9.956 1.205,-7.292 14.11,-2.285 z"/></g><g id="g1525" transform="translate(266.3037,257.0786)" style="fill:#000"><path style="fill:#000;fill-opacity:1;fill-rule:nonzero;stroke:none" id="path1523" d="m 0,0 -59.034,1.38 1.336,-8.087 54.89,-10.286 z"/></g><g id="g1529" transform="translate(272.6929,295.7427)" style="fill:#000"><path style="fill:#000;fill-opacity:1;fill-rule:nonzero;stroke:none" id="path1527" d="m 0,0 -72.826,7.516 3.759,-22.748 67.521,5.875 z"/></g><g id="g1533" transform="translate(266.9844,347.0791)" style="fill:#000"><path style="fill:#000;fill-opacity:1;fill-rule:nonzero;stroke:none" id="path1531" d="m 0,0 h -60.168 c -6.673,0 -12.083,-5.711 -12.083,-12.756 l 1.859,-11.25 82.441,11.973 C 11.692,-5.326 6.442,0 0,0"/></g></g></mask></defs><g id="g10" transform="matrix(1.3333333,0,0,-1.3333333,-110.14826,509.53132)"><path id="path22" d="m 387.4482,229.4775 c 0,-84.041 -68.126,-152.169 -152.169,-152.169 -84.042,0 -152.168,68.128 -152.168,152.169 0,84.044 68.126,152.171 152.168,152.171 84.043,0 152.169,-68.127 152.169,-152.171" mask="url(#mask1483)" style="fill:#000;fill-opacity:1;fill-rule:nonzero;stroke:none"/></g></svg>