<svg xmlns="http://www.w3.org/2000/svg" xmlns:svg="http://www.w3.org/2000/svg" xmlns:xlink="http://www.w3.org/1999/xlink" id="svg10" width="24" height="24" version="1.1" viewBox="0 0 24 24"><metadata id="metadata14"/><defs id="defs3"><path id="a" d="M24 24H0V0h24v24z"/></defs><clipPath id="b"><use id="use5" overflow="visible" xlink:href="#a"/></clipPath><path id="path8" d="M 3,4 V 1 H 5 V 4 H 8 V 6 H 5 V 9 H 3 V 6 H 0 V 4 Z m 3,6 V 7 H 9 V 4 h 7 l 1.83,2 H 21 c 1.1,0 2,0.9 2,2 v 12 c 0,1.1 -0.9,2 -2,2 H 5 C 3.9,22 3,21.1 3,20 V 10 Z m 7,9 c 2.76,0 5,-2.24 5,-5 0,-2.76 -2.24,-5 -5,-5 -2.76,0 -5,2.24 -5,5 0,2.76 2.24,5 5,5 z M 9.8,14 c 0,1.77 1.43,3.2 3.2,3.2 1.77,0 3.2,-1.43 3.2,-3.2 0,-1.77 -1.43,-3.2 -3.2,-3.2 -1.77,0 -3.2,1.43 -3.2,3.2 z" clip-path="url(#b)" transform="matrix(0.55784819,0,0,0.55784819,5.0847458,5.0847458)" style="fill:gray"/></svg>